<?xml version="1.0" encoding="UTF-8" ?>
<!DOCTYPE svg PUBLIC "-//W3C//DTD SVG 1.1//EN" "http://www.w3.org/Graphics/SVG/1.1/DTD/svg11.dtd">
<svg width="495pt" height="495pt" viewBox="0 0 495 495" version="1.1" xmlns="http://www.w3.org/2000/svg">
<g id="#ffffffff">
</g>
<g id="#ffffffff">
<path fill="#ffffff" opacity="1.00" d=" M 1.44 2.50 C 59.91 2.50 118.37 2.50 176.84 2.49 C 176.85 60.91 176.85 119.34 176.84 177.76 C 118.37 177.74 59.90 177.78 1.43 177.74 C 1.44 119.32 1.43 60.91 1.44 2.50 M 36.53 37.50 C 36.54 72.59 36.52 107.67 36.54 142.75 C 71.62 142.73 106.70 142.77 141.78 142.73 C 141.78 107.66 141.76 72.59 141.79 37.51 C 106.70 37.49 71.62 37.51 36.53 37.50 Z" />
<path fill="#ffffff" opacity="1.00" d=" M 211.90 2.51 C 235.30 2.50 258.70 2.46 282.10 2.53 C 282.07 14.19 282.14 25.84 282.06 37.50 C 270.37 37.52 258.68 37.48 246.99 37.51 C 247.02 49.17 246.99 60.83 247.01 72.49 C 258.70 72.52 270.39 72.48 282.09 72.51 C 282.10 107.59 282.09 142.67 282.09 177.75 C 270.40 177.75 258.70 177.75 247.01 177.76 C 247.01 189.09 246.96 200.43 247.05 211.76 C 247.04 212.61 246.61 213.04 245.76 213.05 C 234.47 212.95 223.19 213.03 211.90 212.99 C 211.91 189.58 211.89 166.16 211.91 142.75 C 223.60 142.76 235.30 142.74 246.99 142.76 C 247.00 131.09 247.02 119.42 246.99 107.76 C 235.30 107.75 223.61 107.76 211.92 107.75 C 211.88 72.67 211.91 37.59 211.90 2.51 Z" />
<path fill="#ffffff" opacity="1.00" d=" M 317.19 2.50 C 375.66 2.49 434.13 2.51 492.61 2.49 C 492.60 60.91 492.61 119.33 492.60 177.75 C 434.13 177.77 375.66 177.74 317.19 177.76 C 317.18 119.34 317.19 60.92 317.19 2.50 M 352.28 142.76 C 387.37 142.73 422.45 142.77 457.54 142.74 C 457.53 107.66 457.54 72.59 457.53 37.52 C 422.46 37.48 387.38 37.53 352.31 37.49 C 352.25 72.58 352.31 107.67 352.28 142.76 Z" />
<path fill="#ffffff" opacity="1.00" d=" M 71.63 72.50 C 83.32 72.49 95.01 72.53 106.70 72.48 C 106.76 84.23 106.70 95.99 106.73 107.75 C 95.03 107.76 83.33 107.74 71.63 107.76 C 71.62 96.00 71.62 84.25 71.63 72.50 Z" />
<path fill="#ffffff" opacity="1.00" d=" M 387.35 107.75 C 387.36 96.00 387.32 84.25 387.37 72.49 C 399.06 72.51 410.76 72.49 422.46 72.50 C 422.42 84.26 422.47 96.01 422.43 107.77 C 410.74 107.74 399.04 107.76 387.35 107.75 Z" />
<path fill="#ffffff" opacity="1.00" d=" M 1.43 213.06 C 13.13 212.94 24.84 213.02 36.54 213.01 C 36.53 224.67 36.53 236.34 36.54 248.00 C 48.22 248.00 59.91 248.00 71.59 248.00 C 71.59 236.33 71.60 224.67 71.59 213.00 C 94.98 213.00 118.37 213.00 141.76 213.00 C 141.74 224.67 141.76 236.33 141.75 248.00 C 176.42 248.03 211.09 247.94 245.76 248.05 C 246.61 248.04 247.04 247.61 247.05 246.76 C 246.96 235.64 247.02 224.52 247.00 213.40 C 258.65 212.48 270.41 213.26 282.10 212.99 C 282.10 224.66 282.10 236.33 282.10 248.00 C 270.80 247.93 259.51 248.16 248.22 247.88 C 247.76 248.32 247.32 248.77 246.88 249.22 C 247.16 272.23 246.95 295.24 246.99 318.25 C 258.70 318.26 270.40 318.22 282.10 318.27 C 282.10 329.93 282.09 341.59 282.10 353.25 C 270.42 353.25 258.73 353.27 247.05 353.24 C 247.02 364.91 247.04 376.58 247.03 388.25 C 258.73 388.24 270.42 388.25 282.12 388.25 C 282.14 376.58 282.11 364.91 282.13 353.25 C 293.81 353.25 305.48 353.24 317.16 353.25 C 317.34 341.67 316.80 329.95 317.42 318.46 C 352.34 317.97 387.41 318.38 422.39 318.25 C 422.42 294.84 422.41 271.42 422.40 248.01 C 434.10 247.98 445.81 248.02 457.51 247.99 C 457.49 236.32 457.50 224.66 457.50 213.00 C 469.20 213.01 480.89 212.97 492.58 213.02 C 492.56 236.34 492.56 259.66 492.59 282.98 C 480.89 283.04 469.19 282.97 457.49 283.02 C 457.53 306.43 457.49 329.84 457.51 353.26 C 445.81 353.25 434.11 353.24 422.41 353.26 C 422.41 364.92 422.39 376.59 422.42 388.25 C 434.11 388.24 445.80 388.25 457.50 388.25 C 457.51 400.00 457.50 411.75 457.50 423.50 C 434.11 423.51 410.72 423.49 387.33 423.51 C 387.28 400.08 387.32 376.66 387.31 353.24 C 363.94 353.26 340.56 353.24 317.19 353.25 C 317.19 364.92 317.19 376.59 317.20 388.25 C 305.50 388.25 293.81 388.24 282.12 388.26 C 282.14 400.00 282.12 411.75 282.13 423.49 C 270.43 423.51 258.73 423.49 247.04 423.51 C 247.04 435.17 247.03 446.83 247.04 458.49 C 235.34 458.52 223.64 458.48 211.94 458.50 C 211.94 423.42 211.94 388.34 211.93 353.25 C 223.62 353.24 235.31 353.26 247.00 353.24 C 247.00 341.58 247.02 329.92 246.99 318.25 C 235.30 318.24 223.61 318.25 211.93 318.25 C 211.90 306.50 211.90 294.75 211.92 283.00 C 176.84 283.00 141.76 283.00 106.68 283.00 C 106.69 271.33 106.68 259.67 106.69 248.01 C 95.00 247.99 83.32 248.00 71.63 248.00 C 71.63 259.66 71.61 271.32 71.64 282.98 C 59.94 283.02 48.23 282.99 36.53 283.00 C 36.53 271.33 36.54 259.66 36.53 248.00 C 24.84 247.99 13.14 248.03 1.45 247.98 C 1.47 236.34 1.50 224.70 1.43 213.06 Z" />
<path fill="#ffffff" opacity="1.00" d=" M 317.19 212.99 C 340.57 213.00 363.96 213.00 387.35 212.99 C 387.35 236.33 387.35 259.67 387.35 283.01 C 375.65 282.97 363.96 283.05 352.26 282.97 C 352.31 271.31 352.27 259.66 352.29 248.00 C 340.59 248.00 328.89 248.00 317.19 248.00 C 317.19 236.33 317.19 224.66 317.19 212.99 Z" />
<path fill="#ffffff" opacity="1.00" d=" M 282.10 282.99 C 293.79 283.01 305.47 283.00 317.16 282.99 C 316.99 294.64 317.50 306.38 316.91 317.98 C 305.38 318.61 293.68 318.06 282.09 318.25 C 282.11 306.50 282.08 294.74 282.10 282.99 Z" />
<path fill="#ffffff" opacity="1.00" d=" M 1.47 318.26 C 59.94 318.23 118.41 318.25 176.87 318.25 C 176.89 376.67 176.88 435.09 176.88 493.50 C 118.41 493.50 59.94 493.51 1.47 493.50 C 1.47 435.08 1.47 376.67 1.47 318.26 M 36.52 353.28 C 36.55 388.35 36.53 423.42 36.53 458.49 C 71.62 458.50 106.70 458.51 141.79 458.49 C 141.77 423.41 141.78 388.34 141.78 353.26 C 106.69 353.25 71.61 353.22 36.52 353.28 Z" />
<path fill="#ffffff" opacity="1.00" d=" M 457.51 353.25 C 469.19 353.24 480.88 353.25 492.57 353.24 C 492.56 364.91 492.58 376.58 492.56 388.24 C 480.87 388.25 469.18 388.26 457.49 388.24 C 457.51 376.58 457.49 364.92 457.51 353.25 Z" />
<path fill="#ffffff" opacity="1.00" d=" M 71.63 388.24 C 83.33 388.26 95.03 388.24 106.73 388.25 C 106.71 400.00 106.74 411.76 106.71 423.51 C 95.02 423.49 83.32 423.51 71.63 423.50 C 71.62 411.75 71.62 399.99 71.63 388.24 Z" />
<path fill="#ffffff" opacity="1.00" d=" M 317.20 388.25 C 328.89 388.24 340.58 388.26 352.28 388.24 C 352.28 399.29 352.31 410.33 352.27 421.38 C 352.17 421.75 351.96 422.49 351.85 422.87 C 351.50 423.02 350.80 423.33 350.44 423.49 C 339.36 423.53 328.27 423.49 317.18 423.50 C 317.20 411.75 317.17 400.00 317.20 388.25 Z" />
<path fill="#ffffff" opacity="1.00" d=" M 352.24 424.18 C 352.54 424.02 353.15 423.69 353.45 423.53 C 364.74 423.44 376.03 423.52 387.32 423.51 C 387.32 446.84 387.32 470.17 387.31 493.50 C 340.55 493.52 293.79 493.48 247.02 493.52 C 246.98 481.85 247.01 470.17 247.00 458.50 C 282.09 458.50 317.17 458.50 352.26 458.50 C 352.26 447.06 352.24 435.61 352.24 424.18 Z" />
<path fill="#ffffff" opacity="1.00" d=" M 457.50 423.50 C 469.19 423.50 480.88 423.50 492.56 423.50 C 492.58 435.16 492.56 446.83 492.57 458.50 C 480.88 458.50 469.19 458.50 457.50 458.50 C 457.50 446.83 457.50 435.16 457.50 423.50 Z" />
<path fill="#ffffff" opacity="1.00" d=" M 422.43 493.52 C 422.40 481.84 422.39 470.16 422.43 458.48 C 434.12 458.52 445.81 458.48 457.50 458.50 C 457.50 470.17 457.52 481.85 457.49 493.52 C 445.80 493.49 434.12 493.49 422.43 493.52 Z" />
</g>
</svg>
